<svg width="300" height="200" xmlns="http://www.w3.org/2000/svg">
  <defs>
    <linearGradient id="symbols-gradient" x1="0%" y1="0%" x2="100%" y2="100%">
      <stop offset="0%" style="stop-color:#8B5CF6;stop-opacity:1" />
      <stop offset="100%" style="stop-color:#3B82F6;stop-opacity:1" />
    </linearGradient>
  </defs>
  
  <rect width="100%" height="100%" fill="url(#symbols-gradient)"/>
  
  <!-- Book symbols -->
  <rect x="60" y="70" width="40" height="50" fill="white" rx="3"/>
  <rect x="65" y="75" width="30" height="2" fill="#8B5CF6"/>
  <rect x="65" y="85" width="25" height="2" fill="#8B5CF6"/>
  <rect x="65" y="95" width="30" height="2" fill="#8B5CF6"/>
  
  <rect x="120" y="60" width="40" height="50" fill="white" rx="3"/>
  <rect x="125" y="65" width="30" height="2" fill="#3B82F6"/>
  <rect x="125" y="75" width="25" height="2" fill="#3B82F6"/>
  <rect x="125" y="85" width="30" height="2" fill="#3B82F6"/>
  
  <rect x="180" y="80" width="40" height="50" fill="white" rx="3"/>
  <rect x="185" y="85" width="30" height="2" fill="#8B5CF6"/>
  <rect x="185" y="95" width="25" height="2" fill="#8B5CF6"/>
  <rect x="185" y="105" width="30" height="2" fill="#8B5CF6"/>
  
  <text x="150" y="160" text-anchor="middle" font-family="Arial, sans-serif" font-size="24" font-weight="bold" fill="white">
    24symbols
  </text>
</svg>
